<svg width="147" height="44" viewBox="0 0 147 44" fill="none" xmlns="http://www.w3.org/2000/svg">
<path d="M146.031 38.8424C146.031 41.1544 144.181 43.0395 141.872 43.0395H5.9195C3.62865 43.0395 1.76074 41.1722 1.76074 38.8424V5.44366C1.76074 3.13171 3.62865 1.24658 5.9195 1.24658H141.872C144.163 1.24658 146.031 3.13171 146.031 5.44366V38.8424Z" fill="white"/>
<path d="M141.89 44H5.91946C3.09996 44 0.791504 41.688 0.791504 38.8425V5.44376C0.791504 2.59829 3.08234 0.268555 5.91946 0.268555H141.872C144.692 0.268555 147 2.5805 147 5.44376V38.8425C147 41.688 144.709 44 141.89 44Z" fill="#A6A6A6"/>
<path d="M146.031 38.8424C146.031 41.1544 144.181 43.0395 141.872 43.0395H5.9195C3.62865 43.0395 1.76074 41.1722 1.76074 38.8424V5.44366C1.76074 3.13171 3.62865 1.24658 5.9195 1.24658H141.872C144.163 1.24658 146.031 3.13171 146.031 5.44366V38.8424Z" fill="black"/>
<path d="M33.4447 21.9118C33.4095 18.3905 36.2994 16.6655 36.4404 16.5943C34.8016 14.1935 32.2641 13.8556 31.3653 13.8378C29.2331 13.6066 27.1714 15.1182 26.0788 15.1182C24.9686 15.1182 23.2946 13.8556 21.4971 13.8911C19.1711 13.9267 17.0036 15.2783 15.8229 17.3946C13.3735 21.6806 15.2061 27.994 17.5498 31.4619C18.7305 33.1692 20.105 35.0543 21.9024 34.9832C23.6646 34.9121 24.3166 33.845 26.4489 33.845C28.5459 33.845 29.1802 34.9832 31.0129 34.9299C32.8984 34.8943 34.0967 33.2226 35.2245 31.5153C36.5814 29.5768 37.1277 27.6561 37.1453 27.5494C37.11 27.5316 33.48 26.1267 33.4447 21.9118Z" fill="white"/>
<path d="M29.9731 11.5437C30.9246 10.3521 31.5766 8.71598 31.3828 7.07983C30.0083 7.13319 28.299 8.04018 27.3122 9.21394C26.4311 10.2454 25.6557 11.9349 25.8672 13.5177C27.4179 13.6066 28.9862 12.7174 29.9731 11.5437Z" fill="white"/>
<path d="M58.9438 34.7164H56.4767L55.1375 30.4482H50.45L49.1637 34.7164H46.7671L51.4016 20.1689H54.274L58.9438 34.7164ZM54.7322 28.652L53.5163 24.8462C53.3929 24.4549 53.1462 23.5479 52.7938 22.1074H52.7585C52.6175 22.7299 52.3885 23.6369 52.0713 24.8462L50.873 28.652H54.7322Z" fill="white"/>
<path d="M70.8734 29.3458C70.8734 31.1242 70.3977 32.547 69.4285 33.5784C68.565 34.5032 67.49 34.9656 66.2213 34.9656C64.8468 34.9656 63.86 34.4677 63.2608 33.4717V38.9848H60.9524V27.6919C60.9524 26.5715 60.9171 25.4155 60.8643 24.2417H62.8908L63.0141 25.9134H63.0493C63.8247 24.6686 64.9878 24.0283 66.5561 24.0283C67.7896 24.0283 68.8117 24.5085 69.6223 25.5044C70.4505 26.4648 70.8734 27.7452 70.8734 29.3458ZM68.5121 29.4347C68.5121 28.421 68.283 27.5674 67.8249 26.9094C67.3315 26.2158 66.6618 25.8779 65.816 25.8779C65.2521 25.8779 64.7234 26.0735 64.2653 26.447C63.8071 26.8382 63.4899 27.3362 63.3489 27.9408C63.2784 28.2254 63.2432 28.4566 63.2432 28.6522V30.3951C63.2432 31.1598 63.4723 31.8 63.9304 32.3336C64.3886 32.8671 65.0054 33.1161 65.7455 33.1161C66.609 33.1161 67.2962 32.7782 67.772 32.1024C68.2654 31.4266 68.5121 30.5373 68.5121 29.4347Z" fill="white"/>
<path d="M82.8217 29.3458C82.8217 31.1242 82.3459 32.547 81.3767 33.5784C80.5133 34.5032 79.4383 34.9656 78.1696 34.9656C76.7951 34.9656 75.8082 34.4677 75.2091 33.4717V38.9848H72.9006V27.6919C72.9006 26.5715 72.8654 25.4155 72.8125 24.2417H74.839L74.9624 25.9134H74.9976C75.773 24.6686 76.936 24.0283 78.5044 24.0283C79.7379 24.0283 80.76 24.5085 81.5706 25.5044C82.4164 26.4648 82.8217 27.7452 82.8217 29.3458ZM80.478 29.4347C80.478 28.421 80.2489 27.5674 79.7908 26.9094C79.2974 26.2158 78.6277 25.8779 77.7819 25.8779C77.218 25.8779 76.6893 26.0735 76.2312 26.447C75.773 26.8382 75.4734 27.3362 75.3148 27.9408C75.2443 28.2254 75.2091 28.4566 75.2091 28.6522V30.3951C75.2091 31.1598 75.4382 31.8 75.8963 32.3336C76.3545 32.8493 76.9713 33.1161 77.7114 33.1161C78.5749 33.1161 79.2621 32.7782 79.7379 32.1024C80.2313 31.4266 80.478 30.5373 80.478 29.4347Z" fill="white"/>
<path d="M96.196 30.644C96.196 31.8888 95.7731 32.8848 94.9096 33.6673C93.9757 34.5209 92.654 34.9477 90.98 34.9477C89.4292 34.9477 88.1781 34.6454 87.2441 34.0407L87.7728 32.1023C88.7772 32.7069 89.905 33.0093 91.1033 33.0093C91.9668 33.0093 92.6541 32.8136 93.1298 32.4224C93.6056 32.0311 93.8523 31.4976 93.8523 30.8396C93.8523 30.2527 93.6585 29.7547 93.2532 29.3457C92.8479 28.9367 92.1959 28.5632 91.2619 28.2253C88.742 27.2827 87.4732 25.8778 87.4732 24.0638C87.4732 22.8723 87.9138 21.8941 88.8125 21.1294C89.7112 20.3647 90.8919 19.9912 92.3545 19.9912C93.6585 19.9912 94.7687 20.2224 95.6321 20.6848L95.0506 22.5877C94.24 22.1431 93.3061 21.9119 92.284 21.9119C91.4734 21.9119 90.8214 22.1075 90.3808 22.5166C89.9932 22.8723 89.7993 23.3169 89.7993 23.8326C89.7993 24.4017 90.0284 24.8819 90.4689 25.2553C90.8566 25.5932 91.5439 25.9667 92.5659 26.3757C93.7995 26.8737 94.7158 27.4606 95.2973 28.1364C95.9141 28.7944 96.196 29.6303 96.196 30.644Z" fill="white"/>
<path d="M103.862 25.9844H101.307V31.0707C101.307 32.3689 101.747 33.0091 102.646 33.0091C103.051 33.0091 103.404 32.9736 103.668 32.9024L103.739 34.6809C103.28 34.8587 102.681 34.9476 101.941 34.9476C101.025 34.9476 100.32 34.6631 99.8089 34.1118C99.2979 33.5427 99.0335 32.6001 99.0335 31.2841V26.0022H97.5181V24.2593H99.0335V22.3386L101.307 21.645V24.2593H103.862V25.9844Z" fill="white"/>
<path d="M115.316 29.3813C115.316 30.9997 114.858 32.3157 113.942 33.3472C112.99 34.4143 111.721 34.9478 110.135 34.9478C108.602 34.9478 107.386 34.432 106.488 33.4183C105.589 32.4046 105.131 31.1064 105.131 29.5592C105.131 27.9408 105.607 26.607 106.541 25.5577C107.475 24.5262 108.743 24.0105 110.312 24.0105C111.845 24.0105 113.061 24.5262 113.995 25.5399C114.876 26.5359 115.316 27.8163 115.316 29.3813ZM112.937 29.4347C112.937 28.4743 112.726 27.6563 112.321 26.9627C111.845 26.1268 111.14 25.7178 110.241 25.7178C109.307 25.7178 108.602 26.1268 108.127 26.9627C107.721 27.6563 107.51 28.4921 107.51 29.488C107.51 30.4484 107.721 31.2842 108.127 31.96C108.62 32.7959 109.325 33.2049 110.224 33.2049C111.105 33.2049 111.792 32.7781 112.303 31.9423C112.708 31.2309 112.937 30.395 112.937 29.4347Z" fill="white"/>
<path d="M122.841 26.2691C122.611 26.2335 122.365 26.1979 122.118 26.1979C121.307 26.1979 120.673 26.5003 120.232 27.1227C119.845 27.674 119.651 28.3676 119.651 29.2035V34.7166H117.342V27.5317C117.342 26.3224 117.325 25.2198 117.272 24.2239H119.281L119.369 26.2335H119.439C119.686 25.5399 120.074 24.9886 120.603 24.5618C121.114 24.1883 121.677 23.9927 122.277 23.9927C122.488 23.9927 122.682 24.0105 122.858 24.0282L122.841 26.2691Z" fill="white"/>
<path d="M133.167 28.9722C133.167 29.3812 133.132 29.7369 133.079 30.0214H126.154C126.172 31.0529 126.524 31.8532 127.158 32.4045C127.74 32.8847 128.498 33.1337 129.432 33.1337C130.454 33.1337 131.388 32.9736 132.234 32.6357L132.604 34.2541C131.617 34.6809 130.454 34.8943 129.114 34.8943C127.511 34.8943 126.242 34.4141 125.308 33.4538C124.392 32.4935 123.934 31.213 123.934 29.5946C123.934 28.0118 124.357 26.6958 125.22 25.6465C126.119 24.5261 127.335 23.957 128.85 23.957C130.348 23.957 131.476 24.5261 132.251 25.6465C132.868 26.5713 133.167 27.6739 133.167 28.9722ZM130.965 28.3675C130.982 27.6739 130.824 27.0871 130.524 26.5713C130.119 25.9133 129.502 25.5932 128.692 25.5932C127.934 25.5932 127.317 25.9133 126.859 26.5357C126.471 27.0337 126.242 27.6384 126.172 28.3497L130.965 28.3675Z" fill="white"/>
<path d="M53.6218 14.9581H52.406L51.7363 12.8596H49.4279L48.7935 14.9581H47.6128L49.886 7.80884H51.2958L53.6218 14.9581ZM51.5601 11.9703L50.9609 10.103C50.8905 9.90738 50.7847 9.46277 50.6085 8.7514H50.5909C50.5204 9.05373 50.4147 9.49834 50.2561 10.103L49.6746 11.9703H51.5601Z" fill="white"/>
<path d="M59.3315 9.80078L57.3931 14.9582H56.283L54.415 9.80078H55.631L56.512 12.5218C56.653 12.9842 56.7764 13.411 56.8821 13.82H56.9174C57.0055 13.4465 57.1288 13.0197 57.2874 12.5218L58.1509 9.80078H59.3315Z" fill="white"/>
<path d="M63.4547 14.9583L63.3666 14.3714H63.3313C62.9789 14.8516 62.4855 15.0828 61.8335 15.0828C60.9171 15.0828 60.2651 14.4426 60.2651 13.5711C60.2651 12.2907 61.3577 11.6326 63.2432 11.6326V11.5437C63.2432 10.8679 62.8908 10.53 62.1859 10.53C61.6749 10.53 61.2343 10.6545 60.8466 10.9213L60.6176 10.1743C61.0934 9.87201 61.6749 9.72974 62.3798 9.72974C63.719 9.72974 64.3886 10.4411 64.3886 11.8638V13.7668C64.3886 14.2825 64.4063 14.6915 64.4591 14.9939L63.4547 14.9583ZM63.2961 12.3974C62.0273 12.3974 61.4106 12.6997 61.4106 13.4289C61.4106 13.9624 61.7454 14.2291 62.1859 14.2291C62.7674 14.2291 63.2961 13.7845 63.2961 13.1799V12.3974Z" fill="white"/>
<path d="M66.926 8.94727C66.5559 8.94727 66.2563 8.64493 66.2563 8.25368C66.2563 7.86243 66.5559 7.57788 66.9436 7.57788C67.3313 7.57788 67.6485 7.86243 67.6309 8.25368C67.6485 8.6805 67.3489 8.94727 66.926 8.94727ZM67.5075 14.9583H66.3797V9.80091H67.5075V14.9583Z" fill="white"/>
<path d="M70.6625 14.9583H69.5347V7.43555H70.6625V14.9583Z" fill="white"/>
<path d="M75.4904 14.9583L75.4023 14.3714H75.367C75.0146 14.8516 74.5212 15.0828 73.8691 15.0828C72.9528 15.0828 72.3008 14.4426 72.3008 13.5711C72.3008 12.2907 73.3933 11.6326 75.2789 11.6326V11.5437C75.2789 10.8679 74.9265 10.53 74.2216 10.53C73.7105 10.53 73.27 10.6545 72.8823 10.9213L72.6532 10.1743C73.129 9.87201 73.7105 9.72974 74.4154 9.72974C75.7547 9.72974 76.4243 10.4411 76.4243 11.8638V13.7668C76.4243 14.2825 76.442 14.6915 76.4948 14.9939H75.4904V14.9583ZM75.3318 12.3974C74.063 12.3974 73.4462 12.6997 73.4462 13.4289C73.4462 13.9624 73.781 14.2291 74.2216 14.2291C74.8031 14.2291 75.3318 13.7845 75.3318 13.1799V12.3974Z" fill="white"/>
<path d="M81.0418 15.0828C80.3193 15.0828 79.773 14.7804 79.4382 14.1758H79.4206L79.3501 14.9761H78.3809C78.4161 14.567 78.4161 14.0868 78.4161 13.5889V7.43555H79.5615V10.5478H79.5792C79.914 9.97869 80.4602 9.69414 81.2004 9.69414C82.4339 9.69414 83.2974 10.7612 83.2974 12.3084C83.2974 13.909 82.3458 15.0828 81.0418 15.0828ZM80.8127 10.6011C80.1607 10.6011 79.5615 11.1702 79.5615 11.9705V12.8775C79.5615 13.5889 80.0902 14.1758 80.7951 14.1758C81.6409 14.1758 82.1519 13.4822 82.1519 12.3618C82.1519 11.3125 81.6233 10.6011 80.8127 10.6011Z" fill="white"/>
<path d="M86.1171 14.9583H84.9893V7.43555H86.1171V14.9583Z" fill="white"/>
<path d="M92.3017 12.6641H88.9007C88.9183 13.6422 89.5703 14.1935 90.5043 14.1935C91.0153 14.1935 91.4735 14.1046 91.8788 13.9445L92.055 14.7448C91.5792 14.9582 90.9977 15.0649 90.3457 15.0649C88.7421 15.0649 87.8081 14.0512 87.8081 12.4684C87.8081 10.8856 88.7773 9.69409 90.2223 9.69409C91.5263 9.69409 92.3546 10.6722 92.3546 12.1483C92.3369 12.3439 92.3369 12.5218 92.3017 12.6641ZM91.262 11.846C91.262 11.0457 90.8567 10.4944 90.1342 10.4944C89.4822 10.4944 88.9712 11.0635 88.9007 11.846H91.262Z" fill="white"/>
<path d="M99.1922 15.0827C97.6943 15.0827 96.7251 13.9623 96.7251 12.4329C96.7251 10.8323 97.7119 9.71191 99.2803 9.71191C100.743 9.71191 101.747 10.779 101.747 12.3618C101.73 13.9446 100.708 15.0827 99.1922 15.0827ZM99.2274 10.53C98.3992 10.53 97.8881 11.3125 97.8881 12.3795C97.8881 13.4466 98.4168 14.2113 99.2274 14.2113C100.02 14.2113 100.567 13.3755 100.567 12.3618C100.549 11.3125 100.02 10.53 99.2274 10.53Z" fill="white"/>
<path d="M107.827 14.9582H106.699V11.9883C106.699 11.0813 106.347 10.6189 105.677 10.6189C105.007 10.6189 104.532 11.2058 104.532 11.8816V14.9404H103.404V11.2769C103.404 10.8145 103.386 10.3343 103.369 9.8008H104.373L104.426 10.6011H104.461C104.761 10.0498 105.395 9.69409 106.082 9.69409C107.157 9.69409 107.862 10.5299 107.862 11.8638L107.827 14.9582Z" fill="white"/>
<path d="M115.263 10.6544H114.012V13.1619C114.012 13.8022 114.223 14.1223 114.681 14.1223C114.875 14.1223 115.052 14.1045 115.193 14.0689L115.228 14.9404C114.999 15.0293 114.717 15.0649 114.347 15.0649C113.448 15.0649 112.919 14.5669 112.919 13.2687V10.6544H112.179V9.80073H112.919V8.85816L114.029 8.52026V9.80073H115.281V10.6544H115.263Z" fill="white"/>
<path d="M121.272 14.9583H120.127V12.0239C120.127 11.0991 119.774 10.6367 119.105 10.6367C118.523 10.6367 117.977 11.0457 117.977 11.8638V14.9761H116.832V7.43555H117.977V10.53H117.995C118.347 9.96091 118.876 9.69414 119.528 9.69414C120.603 9.69414 121.272 10.5478 121.272 11.8994V14.9583Z" fill="white"/>
<path d="M127.087 12.6641H123.686C123.704 13.6422 124.356 14.1935 125.29 14.1935C125.801 14.1935 126.259 14.1046 126.664 13.9445L126.841 14.7448C126.365 14.9582 125.783 15.0649 125.131 15.0649C123.528 15.0649 122.594 14.0512 122.594 12.4684C122.594 10.8856 123.563 9.69409 125.008 9.69409C126.312 9.69409 127.14 10.6722 127.14 12.1483C127.123 12.3439 127.105 12.5218 127.087 12.6641ZM126.048 11.846C126.048 11.0457 125.642 10.4944 124.92 10.4944C124.268 10.4944 123.757 11.0635 123.686 11.846H126.048Z" fill="white"/>
</svg>
