<svg width="147" height="44" viewBox="0 0 147 44" fill="none" xmlns="http://www.w3.org/2000/svg">
<path d="M141.03 43.4788H5.65716C2.67636 43.4788 0.247559 41.0561 0.247559 38.0828V5.68524C0.247559 2.71197 2.67636 0.289306 5.65716 0.289306H141.03C144.011 0.289306 146.439 2.71197 146.439 5.68524V38.0828C146.461 41.0561 144.011 43.4788 141.03 43.4788Z" fill="black"/>
<path d="M141.03 1.14903C143.547 1.14903 145.578 3.17526 145.578 5.68602V38.0836C145.578 40.5944 143.547 42.6206 141.03 42.6206H5.65716C3.14004 42.6206 1.10868 40.5944 1.10868 38.0836V5.68602C1.10868 3.17526 3.14004 1.14903 5.65716 1.14903H141.03ZM141.03 0.268061H5.65716C2.67636 0.268061 0.247559 2.69072 0.247559 5.66399V38.0616C0.247559 41.0349 2.67636 43.4575 5.65716 43.4575H141.03C144.011 43.4575 146.439 41.0349 146.439 38.0616V5.68602C146.461 2.71275 144.011 0.268061 141.03 0.268061Z" fill="#A6A6A6"/>
<path d="M51.6056 11.3454C51.6056 12.2484 51.3407 12.9752 50.8107 13.5038C50.1925 14.1425 49.3976 14.4729 48.4261 14.4729C47.4987 14.4729 46.6818 14.1425 46.0415 13.5038C45.3791 12.8431 45.0479 12.0502 45.0479 11.0811C45.0479 10.1121 45.3791 9.31919 46.0415 8.68049C46.7039 8.04179 47.4987 7.71143 48.4261 7.71143C48.8898 7.71143 49.3314 7.79952 49.7509 7.97572C50.1704 8.15191 50.5237 8.39418 50.7666 8.70252L50.1925 9.27514C49.7509 8.76859 49.1768 8.5043 48.404 8.5043C47.7195 8.5043 47.1234 8.74656 46.6376 9.2311C46.1298 9.71563 45.8869 10.3323 45.8869 11.1032C45.8869 11.874 46.1298 12.4907 46.6376 12.9752C47.1455 13.4597 47.7416 13.702 48.404 13.702C49.1327 13.702 49.7288 13.4597 50.2146 12.9752C50.5237 12.6669 50.7224 12.2264 50.7666 11.6538H48.404V10.8829H51.5394C51.5835 11.0151 51.6056 11.1913 51.6056 11.3454Z" fill="white" stroke="white" stroke-width="0.16" stroke-miterlimit="10"/>
<path d="M56.5956 8.63638H53.6369V10.6846H56.3086V11.4555H53.6369V13.5037H56.5956V14.2966H52.7979V7.84351H56.5956V8.63638Z" fill="white" stroke="white" stroke-width="0.16" stroke-miterlimit="10"/>
<path d="M60.1286 14.3186H59.2896V8.63638H57.479V7.84351H61.9392V8.63638H60.1286V14.3186Z" fill="white" stroke="white" stroke-width="0.16" stroke-miterlimit="10"/>
<path d="M65.1626 14.3186V7.84351H66.0017V14.3186H65.1626Z" fill="white" stroke="white" stroke-width="0.16" stroke-miterlimit="10"/>
<path d="M69.6891 14.3186H68.8501V8.63638H67.0396V7.84351H71.4997V8.63638H69.6891V14.3186Z" fill="white" stroke="white" stroke-width="0.16" stroke-miterlimit="10"/>
<path d="M79.9785 13.4818C79.3382 14.1425 78.5433 14.4729 77.5938 14.4729C76.6444 14.4729 75.8495 14.1425 75.2092 13.4818C74.5689 12.8211 74.2598 12.0282 74.2598 11.0812C74.2598 10.1341 74.5689 9.31924 75.2092 8.68054C75.8495 8.01982 76.6444 7.68945 77.5938 7.68945C78.5433 7.68945 79.3382 8.01982 79.9785 8.68054C80.6188 9.34127 80.95 10.1341 80.95 11.0812C80.9279 12.0282 80.5967 12.8211 79.9785 13.4818ZM75.8274 12.9312C76.3132 13.4157 76.8873 13.658 77.5938 13.658C78.2783 13.658 78.8745 13.4157 79.3602 12.9312C79.846 12.4467 80.0889 11.83 80.0889 11.0592C80.0889 10.3103 79.846 9.67163 79.3602 9.1871C78.8745 8.70257 78.3004 8.4603 77.5938 8.4603C76.8873 8.4603 76.3132 8.70257 75.8274 9.1871C75.3417 9.67163 75.0988 10.2883 75.0988 11.0592C75.0988 11.83 75.3417 12.4467 75.8274 12.9312Z" fill="white" stroke="white" stroke-width="0.16" stroke-miterlimit="10"/>
<path d="M82.0981 14.3186V7.84351H83.1138L86.2712 12.887H86.3154L86.2712 11.6317V7.84351H87.1103V14.3186H86.2492L82.9372 9.03281H82.893L82.9372 10.2882V14.3186H82.0981Z" fill="white" stroke="white" stroke-width="0.16" stroke-miterlimit="10"/>
<path d="M74.0387 23.7671C71.4995 23.7671 69.424 25.7052 69.424 28.3702C69.424 31.0131 71.4995 32.9732 74.0387 32.9732C76.5779 32.9732 78.6755 31.0131 78.6755 28.3702C78.6755 25.7052 76.6 23.7671 74.0387 23.7671ZM74.0387 31.1452C72.6477 31.1452 71.4333 30 71.4333 28.3702C71.4333 26.7184 72.6256 25.5951 74.0387 25.5951C75.4297 25.5951 76.6441 26.7184 76.6441 28.3702C76.6441 30 75.4297 31.1452 74.0387 31.1452ZM63.9481 23.7671C61.4089 23.7671 59.3334 25.7052 59.3334 28.3702C59.3334 31.0131 61.4089 32.9732 63.9481 32.9732C66.4873 32.9732 68.5629 31.0131 68.5629 28.3702C68.5849 25.7052 66.5094 23.7671 63.9481 23.7671ZM63.9481 31.1452C62.5571 31.1452 61.3427 30 61.3427 28.3702C61.3427 26.7184 62.5571 25.5951 63.9481 25.5951C65.3392 25.5951 66.5536 26.7184 66.5536 28.3702C66.5536 30 65.3612 31.1452 63.9481 31.1452ZM51.9587 25.1767V27.1368H56.6396C56.5072 28.238 56.1318 29.0309 55.5798 29.5815C54.8953 30.2642 53.8355 31.0131 51.9587 31.0131C49.0883 31.0131 46.8361 28.7005 46.8361 25.8374C46.8361 22.9742 49.0883 20.6397 51.9587 20.6397C53.5043 20.6397 54.6524 21.2564 55.4915 22.0272L56.8604 20.6617C55.6902 19.5385 54.1446 18.7015 51.9587 18.7015C48.0063 18.7015 44.6943 21.8951 44.6943 25.8374C44.6943 29.7797 48.0063 32.9732 51.9587 32.9732C54.1004 32.9732 55.6902 32.2684 56.9488 30.969C58.2294 29.6916 58.6489 27.8636 58.6489 26.41C58.6489 25.9475 58.6048 25.529 58.5385 25.1987H51.9587V25.1767ZM101.021 26.6963C100.645 25.6612 99.4749 23.7671 97.0682 23.7671C94.7056 23.7671 92.7184 25.6392 92.7184 28.3702C92.7184 30.947 94.6614 32.9732 97.289 32.9732C99.4087 32.9732 100.623 31.6958 101.131 30.947L99.5632 29.9119C99.0333 30.6827 98.3267 31.1893 97.289 31.1893C96.2733 31.1893 95.5226 30.7268 95.0589 29.8017L101.219 27.269L101.021 26.6963ZM94.7498 28.216C94.7056 26.4541 96.1187 25.529 97.1565 25.529C97.9514 25.529 98.6359 25.9255 98.8787 26.4981L94.7498 28.216ZM89.7376 32.6869H91.769V19.1861H89.7376V32.6869ZM86.4256 24.8022H86.3594C85.8957 24.2737 85.0346 23.7891 83.9306 23.7891C81.6342 23.7891 79.5145 25.8154 79.5145 28.3922C79.5145 30.969 81.6342 32.9732 83.9306 32.9732C85.0346 32.9732 85.8957 32.4887 86.3594 31.9381H86.4256V32.5988C86.4256 34.3607 85.4762 35.3078 83.9747 35.3078C82.7382 35.3078 81.9654 34.4268 81.6563 33.678L79.8899 34.4048C80.3978 35.6161 81.7446 37.1138 83.9747 37.1138C86.3594 37.1138 88.3466 35.7262 88.3466 32.3345V24.0754H86.4256V24.8022ZM84.1072 31.1452C82.7162 31.1452 81.5459 29.9779 81.5459 28.3702C81.5459 26.7404 82.7162 25.5731 84.1072 25.5731C85.4762 25.5731 86.5581 26.7624 86.5581 28.3702C86.5581 29.9779 85.4762 31.1452 84.1072 31.1452ZM110.515 19.1861H105.679V32.6869H107.689V27.5773H110.515C112.767 27.5773 114.953 25.9475 114.953 23.3927C114.953 20.7938 112.745 19.1861 110.515 19.1861ZM110.559 25.6832H107.689V21.0581H110.559C112.061 21.0581 112.922 22.3135 112.922 23.3707C112.922 24.4058 112.061 25.6832 110.559 25.6832ZM123.034 23.7451C121.577 23.7451 120.053 24.3838 119.435 25.8154L121.224 26.5642C121.599 25.8154 122.328 25.5731 123.078 25.5731C124.116 25.5731 125.198 26.2118 125.198 27.313V27.4451C124.823 27.2249 124.05 26.9166 123.078 26.9166C121.157 26.9166 119.17 27.9737 119.17 29.9559C119.17 31.7619 120.76 32.9292 122.526 32.9292C123.895 32.9292 124.646 32.3125 125.11 31.6077H125.176V32.6429H127.119V27.4672C127.163 25.0886 125.375 23.7451 123.034 23.7451ZM122.791 31.1452C122.129 31.1452 121.202 30.8149 121.202 30C121.202 28.9648 122.35 28.5464 123.343 28.5464C124.227 28.5464 124.646 28.7446 125.198 29.0089C125.044 30.2642 123.962 31.1452 122.791 31.1452ZM134.273 24.0314L131.955 29.8898H131.888L129.482 24.0314H127.296L130.895 32.2024L128.841 36.7614H130.961L136.525 24.0314H134.273ZM116.057 32.6869H118.088V19.1861H116.057V32.6869Z" fill="white"/>
<path d="M11.5528 8.4163C11.2436 8.74666 11.0449 9.27524 11.0449 9.93597V33.8322C11.0449 34.493 11.2216 35.0215 11.5528 35.3519L11.6411 35.418L25.0657 22.0273V21.7189L11.6411 8.3282L11.5528 8.4163Z" fill="url(#paint0_linear)"/>
<path d="M29.5261 26.498L25.0659 22.0271V21.7188L29.5261 17.2479L29.6365 17.3139L34.9357 20.3313C36.4371 21.1902 36.4371 22.5998 34.9357 23.4587L29.6365 26.454L29.5261 26.498Z" fill="url(#paint1_linear)"/>
<path d="M29.6358 26.4319L25.0431 21.8729L11.5522 35.3517C12.0601 35.8803 12.877 35.9464 13.8044 35.4178L29.6358 26.4319Z" fill="url(#paint2_linear)"/>
<path d="M29.6358 17.314L13.8044 8.35019C12.877 7.82161 12.0601 7.88768 11.5522 8.41626L25.0431 21.873L29.6358 17.314Z" fill="url(#paint3_linear)"/>
<defs>
<linearGradient id="paint0_linear" x1="23.8595" y1="34.0757" x2="1.41075" y2="11.3043" gradientUnits="userSpaceOnUse">
<stop stop-color="#00A0FF"/>
<stop offset="0.0066" stop-color="#00A1FF"/>
<stop offset="0.2601" stop-color="#00BEFF"/>
<stop offset="0.5122" stop-color="#00D2FF"/>
<stop offset="0.7604" stop-color="#00DFFF"/>
<stop offset="1" stop-color="#00E3FF"/>
</linearGradient>
<linearGradient id="paint1_linear" x1="36.8941" y1="21.8784" x2="4.0596" y2="21.8784" gradientUnits="userSpaceOnUse">
<stop stop-color="#FFE000"/>
<stop offset="0.4087" stop-color="#FFBD00"/>
<stop offset="0.7754" stop-color="#FFA500"/>
<stop offset="1" stop-color="#FF9C00"/>
</linearGradient>
<linearGradient id="paint2_linear" x1="18.1014" y1="28.412" x2="-12.3408" y2="-2.46773" gradientUnits="userSpaceOnUse">
<stop stop-color="#FF3A44"/>
<stop offset="1" stop-color="#C31162"/>
</linearGradient>
<linearGradient id="paint3_linear" x1="-0.879761" y1="34.2798" x2="12.7133" y2="20.4915" gradientUnits="userSpaceOnUse">
<stop stop-color="#32A071"/>
<stop offset="0.0685" stop-color="#2DA771"/>
<stop offset="0.4762" stop-color="#15CF74"/>
<stop offset="0.8009" stop-color="#06E775"/>
<stop offset="1" stop-color="#00F076"/>
</linearGradient>
</defs>
</svg>
