<svg xmlns="http://www.w3.org/2000/svg" viewBox="0 0 100 30.73"><defs><style>.cls-1{fill:#0d0e0e;}</style></defs><g id="Layer_2" data-name="Layer 2"><g id="Layer_1-2" data-name="Layer 1"><g id="Layer_2-2" data-name="Layer 2"><g id="Layer_1-2-2" data-name="Layer 1-2"><path class="cls-1" d="M30.37,12l-1.82,2.73a3.66,3.66,0,0,0-3-1.64,2.52,2.52,0,0,0-1.72.64,2.06,2.06,0,0,0-.71,1.62c0,.85.68,1.61,2.06,2.24A28.43,28.43,0,0,1,29,19.46,5.35,5.35,0,0,1,31,23.93a7,7,0,0,1-1.75,4.89,6.32,6.32,0,0,1-4.84,1.9c-2.55,0-4.59-1.29-6.14-3.88l2.51-2.46a4.69,4.69,0,0,0,1.35,2,3.4,3.4,0,0,0,2.25.86,2.35,2.35,0,0,0,1.91-.86,3.06,3.06,0,0,0,.65-2,2.53,2.53,0,0,0-1.1-2.2,13.61,13.61,0,0,0-2.32-1.09,8.69,8.69,0,0,1-3.2-1.94,4.85,4.85,0,0,1-1.24-3.46,5.86,5.86,0,0,1,1.64-4.26,5.48,5.48,0,0,1,4.17-1.72,8,8,0,0,1,2.94.61A6.37,6.37,0,0,1,30.37,12Z"/><path class="cls-1" d="M41,13.65V30.19H37.12V13.65h-4V10.26h11.9v3.39Z"/><path class="cls-1" d="M57.23,30.72a9.17,9.17,0,0,1-7.17-3,10.72,10.72,0,0,1-2.74-7.43,10.68,10.68,0,0,1,2.74-7.42,9.11,9.11,0,0,1,7.1-3.05,9.24,9.24,0,0,1,7.14,3.09A10.67,10.67,0,0,1,67,20.24a10.72,10.72,0,0,1-2.74,7.43A9.19,9.19,0,0,1,57.23,30.72Zm0-17.16a5.31,5.31,0,0,0-4.23,2,6.61,6.61,0,0,0-1.62,4.47,7.28,7.28,0,0,0,1.67,4.55,5,5,0,0,0,8.35,0,7.28,7.28,0,0,0,1.67-4.55,6.65,6.65,0,0,0-1.61-4.47A5.34,5.34,0,0,0,57.23,13.56Z"/><path class="cls-1" d="M78.22,21.79l5.63,8.4H79.13l-4.85-8v8H70.37v-20h5.26q6.66,0,6.66,6a6.19,6.19,0,0,1-1,3.55A4.45,4.45,0,0,1,78.22,21.79Zm-3.94-8.35v6h.49q3.65,0,3.65-3.06A2.69,2.69,0,0,0,77.36,14a4.56,4.56,0,0,0-2.56-.55Z"/><path class="cls-1" d="M91.65,10.26V30.19H87.73V10.26Z"/><path class="cls-1" d="M100,10.26V30.19H96.09V10.26Z"/><path class="cls-1" d="M2.16,27.89c.24-.95,1.11-6.12,1.11-6.12A12.42,12.42,0,0,0,8.9,20.42c2.73-1.45,3.26-5.77,3.72-7.31a12.54,12.54,0,0,0-4.95,1.6c5.09-3.79,5.24-1.77,5.8-3.26C16,6.27,18.29,3.94,24.71,2s9.87.89,10.57,1.32a1,1,0,0,0,1.11,0C36.07,2,27.7-2.88,16.22,2.41S1.61,20.18,1.61,20.18s-1.43-.44-1.57,0,.11.7,1.22,1.32A37.8,37.8,0,0,0,0,30.55,9.43,9.43,0,0,0,2.16,27.89Z"/></g></g></g></g></svg>