<svg width="88" height="28" viewBox="0 0 88 28" fill="none" xmlns="http://www.w3.org/2000/svg">
<g clip-path="url(#clip0)">
<path d="M26.7252 10.934L25.1235 13.4215C24.8342 12.9687 24.4425 12.5959 23.9824 12.3355C23.5224 12.0751 23.0078 11.9349 22.4835 11.9272C21.9262 11.9177 21.3858 12.1259 20.9699 12.5103C20.7665 12.6929 20.6048 12.9201 20.4968 13.1754C20.3887 13.4307 20.3369 13.7078 20.3451 13.9864C20.3451 14.7609 20.9435 15.4534 22.1579 16.0274C23.318 16.5076 24.4417 17.0772 25.5196 17.7313C26.1049 18.2161 26.5699 18.8386 26.876 19.547C27.1822 20.2554 27.3205 21.0292 27.2796 21.8042C27.337 23.4389 26.7857 25.034 25.7395 26.2597C25.1888 26.8446 24.5242 27.3014 23.7899 27.5999C23.0555 27.8984 22.2683 28.0317 21.4803 27.9909C19.2363 27.9909 17.4411 26.8155 16.0771 24.4556L18.2859 22.2142C18.5217 22.9185 18.9312 23.5467 19.4739 24.0365C20.0195 24.5391 20.7237 24.8178 21.4539 24.8201C21.7736 24.833 22.0917 24.7689 22.3833 24.6329C22.675 24.497 22.9322 24.2928 23.1348 24.0365C23.5274 23.5181 23.73 22.8725 23.7067 22.2142C23.7234 21.8224 23.6432 21.4327 23.4739 21.0819C23.3045 20.7311 23.0515 20.4309 22.7387 20.2096C22.0899 19.8128 21.4063 19.4803 20.6971 19.2165C19.6456 18.846 18.6847 18.2428 17.8811 17.4488C17.132 16.5869 16.7401 15.4546 16.7899 14.2962C16.7675 13.5821 16.8836 12.8707 17.1315 12.2039C17.3794 11.5372 17.754 10.9288 18.2331 10.4146C18.7024 9.89875 19.2723 9.49218 19.905 9.22197C20.5377 8.95176 21.2187 8.82408 21.9027 8.84744C22.7913 8.86197 23.6692 9.05057 24.4899 9.40325C25.3436 9.71888 26.1106 10.2441 26.7252 10.934Z" fill="#F2EEE6"/>
<path d="M36.0799 12.4373V27.508H32.6655V12.4373H29.1455V9.34851H39.6175V12.4373H36.0799Z" fill="#F2EEE6"/>
<path d="M50.3626 27.991C49.1817 28.0415 48.0045 27.8229 46.9142 27.3506C45.8239 26.8783 44.8472 26.1637 44.053 25.2575C42.4442 23.4022 41.5815 20.9801 41.6418 18.4875C41.5802 15.9975 42.4432 13.5777 44.053 11.7267C44.834 10.8177 45.7986 10.0975 46.8783 9.61729C47.958 9.13705 49.1265 8.90845 50.301 8.94767C51.483 8.91572 52.6575 9.15108 53.7427 9.63734C54.8279 10.1236 55.7975 10.8491 56.5842 11.7632C58.163 13.5984 59.012 15.9848 58.9602 18.442C59.0204 20.9346 58.1577 23.3566 56.549 25.2119C55.7716 26.1088 54.8165 26.8213 53.7489 27.3009C52.6812 27.7806 51.5261 28.0159 50.3626 27.991ZM50.3626 12.3554C49.6489 12.3446 48.9423 12.5033 48.297 12.8192C47.6518 13.1351 47.085 13.5998 46.6402 14.1777C45.6935 15.3053 45.1854 16.7569 45.2146 18.2506C45.2327 19.7658 45.7513 21.2289 46.6842 22.3964C47.0849 23.0261 47.6304 23.543 48.2716 23.9006C48.9129 24.2582 49.6298 24.4454 50.3582 24.4454C51.0865 24.4454 51.8034 24.2582 52.4447 23.9006C53.0859 23.543 53.6314 23.0261 54.0322 22.3964C54.965 21.2289 55.4836 19.7658 55.5018 18.2506C55.53 16.7587 55.0255 15.3084 54.085 14.1777C53.6388 13.6014 53.0717 13.1377 52.4268 12.822C51.7818 12.5062 51.0759 12.3467 50.3626 12.3554Z" fill="#F2EEE6"/>
<path d="M68.8338 19.8543L73.7882 27.508H69.6346L65.3666 20.2187V27.508H61.9258V9.28479H66.5546C70.4618 9.28479 72.4154 11.1071 72.4154 14.7518C72.4463 15.8975 72.1393 17.0258 71.5354 17.9864C71.2404 18.4798 70.8465 18.9018 70.3805 19.2241C69.9144 19.5463 69.387 19.7612 68.8338 19.8543ZM65.3666 12.2461V17.713H65.7978C67.9391 17.713 69.0098 16.7836 69.0098 14.9249C69.0444 14.5112 68.977 14.0952 68.8139 13.7159C68.6507 13.3366 68.3971 13.0064 68.077 12.7563C67.3895 12.3648 66.6063 12.1906 65.8242 12.2552L65.3666 12.2461Z" fill="#F2EEE6"/>
<path d="M80.6517 9.34851V27.508H77.2021V9.34851H80.6517Z" fill="#F2EEE6"/>
<path d="M88.0004 9.34851V27.508H84.5596V9.34851H88.0004Z" fill="#F2EEE6"/>
<path d="M1.9008 25.4124C2.112 24.5468 2.8776 19.8361 2.8776 19.8361C4.59959 19.836 6.29718 19.4145 7.832 18.6061C10.2344 17.2849 10.7008 13.3487 11.1056 11.9455C9.57114 12.1108 8.08722 12.6075 6.7496 13.4033C11.2288 9.95004 11.3608 11.7906 11.8536 10.433C14.08 5.71313 16.0952 3.59013 21.7448 1.82247C27.3944 0.0548174 30.4304 2.63341 31.0464 3.0252C31.191 3.1251 31.361 3.17842 31.5348 3.17842C31.7086 3.17842 31.8786 3.1251 32.0232 3.0252C31.7416 1.82247 24.376 -2.624 14.2736 2.19605C4.1712 7.01609 1.4168 18.3874 1.4168 18.3874C1.4168 18.3874 0.1584 17.9865 0.0352 18.3874C-0.088 18.7883 0.132 19.0252 1.1088 19.5901C0.418527 22.2823 0.0462072 25.0512 0 27.8361C0.771234 27.1552 1.41547 26.3338 1.9008 25.4124Z" fill="#F2EEE6"/>
</g>
<defs>
<clipPath id="clip0">
<rect width="88" height="28" fill="white"/>
</clipPath>
</defs>
</svg>
